<?xml version="1.0" encoding="UTF-8"?>
<!DOCTYPE svg PUBLIC "-//W3C//DTD SVG 1.1//EN" "http://www.w3.org/Graphics/SVG/1.1/DTD/svg11.dtd">
<svg version="1.1" xmlns="http://www.w3.org/2000/svg" xmlns:xlink="http://www.w3.org/1999/xlink" x="0" y="0" width="150" height="300" viewBox="0, 0, 150, 300">
  <g id="Layer_1">
    <path d="M133.562,132.564 L133.562,17.435 L18.438,17.435 L18.438,132.564 L133.562,132.564 z M91.699,38.367 L91.699,62.875 L91.699,90.701 L112.63,90.701 L112.63,101.167 L112.63,111.633 L39.37,111.633 L39.37,90.701 L70.767,90.701 L70.767,71.299 L70.767,59.299 L65.661,59.299 L55.195,59.299 L55.195,47.05 L55.195,38.367 L63.619,38.367 L91.699,38.367 z" fill="#56BDA2" id="1"/>
    <path d="M34.263,167.102 L81.233,167.102 L133.562,167.102 L133.562,224.796 L133.562,282.231 L125.138,282.231 L112.63,282.231 L112.63,237.557 L112.63,188.034 L112.63,190.587 L112.63,188.034 L70.509,188.034 L39.111,188.034 L39.37,219.69 L39.37,261.3 L78.68,261.3 L117.99,261.3 L117.99,269.977 L117.99,282.231 L68.214,282.231 L34.263,282.231 L26.604,282.231 L18.438,282.231 L18.438,261.3 L18.438,261.553 L18.438,167.102 L34.263,167.102 z" fill="#2D325A" id="0"/>
  </g>
</svg>
